<svg id="Layer_1" data-name="Layer 1" xmlns="http://www.w3.org/2000/svg" viewBox="0 0 150 150"><defs><style>.cls-1,.cls-2,.cls-3{stroke:#000;stroke-miterlimit:10;}.cls-2{fill:#333;}.cls-3{fill:#1a1a1a;}</style></defs><title>Untitled-2</title><rect class="cls-1" x="51.4" y="7.9" width="58.1" height="7.54" rx="3.5"/><rect class="cls-1" x="52.5" y="144.4" width="51.7" height="1.53" rx="0.7"/><circle class="cls-2" cx="103.7" cy="11.6" r="2.6"/><path class="cls-1" d="M46.7,148.7h63.4a18.5,18.5,0,0,0,18.4-18.4V19.7A18.5,18.5,0,0,0,110.1,1.3H46.7A18.4,18.4,0,0,0,28.3,19.7V130.3A18.4,18.4,0,0,0,46.7,148.7ZM29.3,122.3V96.4h0V19.7A17.4,17.4,0,0,1,46.7,2.3h63.4a17.4,17.4,0,0,1,17.4,17.4V96.4h0v25.9h0v8a17.4,17.4,0,0,1-17.4,17.3H46.7a17.4,17.4,0,0,1-17.4-17.3v-8Z"/><circle class="cls-3" cx="103.7" cy="11.6" r="2.2"/></svg>