<svg id="Layer_1" data-name="Layer 1" xmlns="http://www.w3.org/2000/svg" viewBox="0 0 150 150"><defs><style>.cls-1{fill:#fff;stroke:#fff;}.cls-1,.cls-2{stroke-miterlimit:10;}.cls-2{fill:none;stroke:#48484a;stroke-width:3px;}</style></defs><title>cart</title><path class="cls-1" d="M120.6,75.1H67.3a2.6,2.6,0,0,0-2.6,2.6,2.5,2.5,0,0,0,2.4,2.6h53.5a2.6,2.6,0,0,0,0-5.2Z"/><path class="cls-1" d="M125.1,58.7H62.7a2.6,2.6,0,0,0,0,5.2h62.4a2.6,2.6,0,0,0,2.6-2.6,2.5,2.5,0,0,0-2.4-2.6Z"/><path class="cls-1" d="M128.9,42.2H59a2.6,2.6,0,1,0,0,5.2h69.9a2.6,2.6,0,0,0,0-5.2Z"/><path class="cls-2" d="M63.4,94.9h61.4a6.4,6.4,0,0,0,6-4.4l17.4-55.2a6.5,6.5,0,0,0-.9-5.6,6.3,6.3,0,0,0-5.1-2.5H35.4L30.3,15.7A2.5,2.5,0,0,0,28,14.2H8a4,4,0,0,0-5.6-.4A4.1,4.1,0,0,0,1,16.9,4.2,4.2,0,0,0,5,21a4,4,0,0,0,3.3-1.7h18L57.7,91.1c0,.2.1.3.2.5l-5,12.3-2.2-.2a16.7,16.7,0,1,0,16.4,19.2H109a16.7,16.7,0,1,0,0-5.1H67.1a16.3,16.3,0,0,0-9.3-12.4l4.4-10.7ZM59,42.5h68.7a2.6,2.6,0,1,1,0,5.2H59a2.6,2.6,0,0,1,0-5.2Zm3.7,21.4a2.6,2.6,0,0,1,0-5.2H124a2.6,2.6,0,0,1,0,5.2Zm59.4,13.6a2.5,2.5,0,0,1-2.5,2.5H67.1a2.5,2.5,0,0,1-2.5-2.5,2.6,2.6,0,0,1,2.5-2.6h52.5A2.6,2.6,0,0,1,122.1,77.5Z"/></svg>