<?xml version="1.0" encoding="utf-8"?>
<!-- Generator: Adobe Illustrator 24.0.0, SVG Export Plug-In . SVG Version: 6.00 Build 0)  -->
<svg version="1.1" id="Layer_1" xmlns="http://www.w3.org/2000/svg" xmlns:xlink="http://www.w3.org/1999/xlink" x="0px" y="0px"
	 viewBox="0 0 100 100" style="enable-background:new 0 0 100 100;" xml:space="preserve">
<style type="text/css">
	.st0{fill:#EC0015;}
	.st1{fill:#FFFFFF;}
	.st2{fill:#EF081F;}
	.st3{fill:#001F80;}
</style>
<g>
	<g>
		<rect x="0" y="0.01" class="st1" width="100.28" height="99.83"/>
		<polygon class="st2" points="100.29,39.95 56.13,39.95 56.13,0.02 44.08,0.02 44.08,39.95 0.04,39.95 0.04,59.91 44.08,59.91 
			44.08,99.84 56.13,99.84 56.13,59.91 100.29,59.91 		"/>
	</g>
	<g>
		<polygon class="st3" points="0,11.63 0,33.37 21.87,33.37 		"/>
		<polygon class="st3" points="12.07,0 11.75,0.03 40.11,28.36 40.11,0 		"/>
		<polygon class="st2" points="33.66,33.23 0,0.01 0,7.84 25.64,33.23 		"/>
		<polygon class="st2" points="66.64,66.61 100.3,99.83 100.3,92 74.67,66.61 		"/>
	</g>
	<g>
		<polygon class="st3" points="0,88.37 0,66.64 21.87,66.64 		"/>
		<polygon class="st3" points="12.07,100 11.75,99.97 40.11,71.64 40.11,100 		"/>
		<polygon class="st2" points="33.49,66.6 0.02,99.81 7.85,99.83 40.14,67.95 40.14,66.6 		"/>
	</g>
	<g>
		<polygon class="st3" points="100.3,11.63 100.3,33.36 78.43,33.36 		"/>
		<polygon class="st3" points="88.24,0 88.56,0.03 60.2,28.36 60.2,0 		"/>
		<polygon class="st2" points="100.27,0.05 92.74,0.05 60.23,32.14 60.23,33.27 67.11,33.27 		"/>
	</g>
	<g>
		<polygon class="st3" points="100.3,88.36 100.3,66.63 78.43,66.63 		"/>
		<polygon class="st3" points="88.24,99.99 88.56,99.96 60.2,71.63 60.2,99.99 		"/>
	</g>
</g>
</svg>
